# xmcd
#
# Track frame offsets:
# 150
# 17604
# 34180
# 52399
# 68994
# 85613
# 104054
# 120387
# 135986
# 155387
# 176808
#
# Disc length: 2553 seconds
#
#
# Revision: 0
# Processed by: cddbd v1.5.1PL0 Copyright (c) Steve Scherf et al.
# Submitted via: FreeRIP 2.931 
#
DISCID=9109f70b
DTITLE=Hoskins Family - It's Over...Let Eternity Begin
DYEAR=2005
DGENRE=Contemporary Christian
TTITLE0=Heaven Awaits
TTITLE1=What Heaven Sees
TTITLE2=Table For Thirteen
TTITLE3=It's Over
TTITLE4=I See A City
TTITLE5=Can You See Me Alright
TTITLE6=You Keep Loving Me
TTITLE7=You've Been A Witness
TTITLE8=Eternity
TTITLE9=Trust God Anyway
TTITLE10=One Of These Days
EXTD=
EXTT0=
EXTT1=
EXTT2=
EXTT3=
EXTT4=
EXTT5=
EXTT6=
EXTT7=
EXTT8=
EXTT9=
EXTT10=
PLAYORDER=
